<?xml version="1.0" encoding="UTF-8" standalone="no"?>
<!-- Created with Inkscape (http://www.inkscape.org/) -->

<svg
   version="1.1"
   id="svg248"
   width="513.2099"
   height="533.95477"
   viewBox="0 0 513.2099 533.95477"
   xmlns="http://www.w3.org/2000/svg"
   xmlns:svg="http://www.w3.org/2000/svg">
  <defs
     id="defs252" />
  <path
     d="m 511.78724,173.77781 c 3.40313,9.07483 0.53173,19.19275 -6.80628,25.65986 l -32.86157,29.31067 c -8.1888,7.4059 -12.12368,18.25397 -11.59194,29.10204 0.10636,3.02495 0.21269,6.0499 0.21269,9.17913 0,3.12926 -0.10633,6.15421 -0.21269,9.17915 -0.53174,10.9524 3.29681,21.80047 11.59194,29.10205 l 32.86157,29.31066 c 7.33801,6.46713 10.20941,16.58505 6.80628,25.65988 -4.67932,12.4127 -10.31577,24.30386 -16.80301,35.77779 l -4.99835,8.44897 c -7.01898,11.47392 -14.88873,22.32199 -23.50293,32.54422 -6.27454,7.51022 -16.69665,10.01362 -26.05529,7.09298 l -42.22019,-13.14287 c -10.63482,-3.33787 -22.12042,-1.14739 -31.58539,4.7982 -5.21106,3.23356 -10.52846,6.36282 -16.05857,9.07483 -9.89037,5.0068 -17.54744,13.76871 -19.99343,24.40816 l -9.46499,42.45352 c -2.12696,9.49207 -9.57132,17.00227 -19.35537,18.5669 -14.67603,2.3991 -29.77746,3.6508 -45.19794,3.6508 -15.42047,0 -30.52189,-1.2517 -45.19793,-3.6508 -9.78403,-1.56463 -17.22839,-9.07483 -19.35537,-18.5669 l -9.46498,-42.45352 c -2.33965,-10.63945 -10.10306,-19.40136 -19.99343,-24.40816 -5.53009,-2.81633 -10.84752,-5.84127 -16.05857,-9.07483 -9.35862,-5.94559 -20.95058,-8.13607 -31.58539,-4.7982 l -42.113844,13.24717 c -9.35864,2.92064 -19.78075,0.31294 -26.05529,-7.09296 -8.6142,-10.22224 -16.483964,-21.07032 -23.502936,-32.54424 l -4.998365,-8.44897 C 11.738444,384.68942 6.101994,372.79825 1.422679,360.38555 -1.98046,351.31071 0.89093894,341.19281 8.228957,334.72568 l 32.861569,-29.31066 c 8.1888,-7.40589 12.12368,-18.25396 11.59195,-29.10204 -0.10636,-3.02495 -0.21271,-6.0499 -0.21271,-9.17915 0,-3.12926 0.10635,-6.15419 0.21271,-9.17914 0.53173,-10.95238 -3.2968,-21.80045 -11.59195,-29.10205 L 8.228957,199.43767 C 0.89093894,192.97056 -1.98046,182.85264 1.422679,173.77781 6.101994,161.3651 11.738444,149.47395 18.225675,138.00003 l 4.998365,-8.44898 c 7.018972,-11.47393 14.888736,-22.322 23.502936,-32.544232 6.27454,-7.5102 16.69665,-10.01361 26.05529,-7.09297 l 42.220194,13.142862 c 10.63481,3.33786 22.12042,1.1474 31.58539,-4.798182 5.21105,-3.23357 10.52845,-6.36282 16.05856,-9.07484 9.89038,-5.00681 17.54744,-13.76871 19.99345,-24.40817 l 9.46498,-42.453521 C 194.23179,12.829929 201.67616,5.319732 211.46019,3.755098 226.13623,1.251692 241.23765,0 256.65814,0 c 15.42046,0 30.5219,1.251692 45.19794,3.650802 9.78401,1.564613 17.22839,9.07482 19.35536,18.566888 l 9.46498,42.453518 c 2.33965,10.63947 9.99672,19.40138 19.99344,24.40818 5.53009,2.81632 10.84751,5.84126 16.05856,9.07482 9.35863,5.945582 20.95058,8.031752 31.58539,4.798202 l 42.22021,-13.142862 c 9.35863,-2.92065 19.78074,-0.31293 26.05528,7.09297 8.61419,10.222222 16.48395,21.070292 23.50293,32.544212 l 4.99836,8.44898 c 6.48724,11.47393 12.12369,23.3651 16.80299,35.77779 z"
     id="path2"
     style="display:inline;fill:#333333;stroke:none;stroke-width:9.99995;stroke-opacity:1" />
  <path
     style="fill:#000000;stroke:#ececec;stroke-width:10"
     d="m 365.40949,456.57458 c -6.85669,-1.9662 -11.2648,-4.48802 -15.16045,-8.67312 -3.6581,-3.9299 -7.42809,-9.78106 -30.34446,-47.09575 -8.29444,-13.50583 -15.54178,-25.05053 -16.10522,-25.6549 -0.63372,-0.67978 -15.47988,-2.39132 -38.92833,-4.48786 -20.84716,-1.86394 -39.78834,-3.60387 -42.0915,-3.86649 l -4.18759,-0.47748 -15.68886,19.10285 c -18.1084,22.0489 -27.19307,32.11362 -31.28517,34.66022 -7.99829,4.97749 -19.36125,6.25303 -31.55248,3.5419 C 66.903016,407.3538 45.994021,402.30141 40.816059,399.64161 28.692985,393.41426 21.602928,378.28478 24.12198,364.01809 c 1.233363,-6.98516 3.59476,-11.7977 8.406818,-17.13311 5.53821,-6.14053 12.296563,-9.17178 21.459378,-9.62492 7.88575,-0.38998 17.70592,1.50261 64.768954,12.48262 10.14452,2.36676 18.7297,4.30321 19.07819,4.30321 0.77198,0 11.01273,-12.68978 11.01273,-13.64637 0,-0.37435 -1.44477,-2.48263 -3.21061,-4.68504 -7.1099,-8.86775 -10.24659,-21.5563 -7.87986,-31.87555 1.16814,-5.09324 14.12639,-36.7211 27.18289,-66.34664 3.86084,-8.76039 7.01973,-16.41556 7.01973,-17.01151 0,-0.59594 -4.68021,-2.68459 -10.40047,-4.64145 -5.72026,-1.95686 -16.53216,-5.64336 -24.02645,-8.19224 l -13.626,-4.63434 -7.63718,8.7293 c -4.20045,4.80112 -12.21339,14.01691 -17.806534,20.47955 -13.65637,15.77936 -15.66623,17.6486 -22.5965,21.01546 -5.01557,2.43666 -7.05986,2.89341 -12.94997,2.89341 -12.27468,0 -21.665711,-5.96143 -27.06846,-17.18304 -2.710175,-5.6291 -3.020444,-7.11421 -2.993399,-14.32801 0.02573,-6.86137 0.40204,-8.79378 2.552309,-13.10631 2.928293,-5.87291 2.127742,-4.90026 29.73565,-36.12832 24.89269,-28.15681 25.06598,-28.32721 32.83835,-32.291 5.450664,-2.77976 6.739544,-3.05091 14.329534,-3.01462 8.13571,0.0389 9.22073,0.33402 44.26306,12.03991 19.75759,6.60002 36.24011,11.79968 36.62781,11.55478 0.3877,-0.24489 0.36125,-2.26142 -0.0588,-4.48117 -2.255,-11.91655 0.75082,-32.45192 6.90315,-47.16146 4.58108,-10.95289 14.33906,-23.676252 24.60958,-32.088272 6.7166,-5.5012 19.78132,-12.28564 28.19682,-14.64246 8.39884,-2.35216 27.90577,-2.81129 36.51719,-0.85951 12.31025,2.79013 13.85824,2.79863 20.10749,0.11045 7.04582,-3.03084 9.5036,-3.08671 12.08837,-0.27477 2.95928,3.21937 2.73755,9.06763 -0.49254,12.99091 l -2.50268,3.03974 7.48442,-0.44281 c 9.81133,-0.58047 15.82825,-3.53686 22.72779,-11.16722 3.26904,-3.61531 5.85484,-5.66257 7.15212,-5.66257 2.86279,0 7.9382,5.53215 9.14243,9.96517 1.4056,5.1743 1.26094,16.10077 -0.28195,21.29583 -3.0651,10.320562 -11.48362,23.004212 -17.42582,26.254402 l -2.30313,1.25974 2.20384,8.16988 c 8.58572,31.82821 -3.06188,67.32094 -28.19734,85.92331 -3.96225,2.93239 -3.99817,3.00719 -1.84898,3.85021 1.20548,0.47285 11.12658,4.52105 22.04688,8.996 10.92032,4.47496 20.59456,8.13629 21.49832,8.13629 0.90376,0 20.46624,-9.66017 43.47218,-21.46703 l 41.82896,-21.46702 7.48199,0.16589 c 17.02599,0.37753 28.84571,10.07821 31.70091,26.01757 1.64508,9.18376 -1.70768,20.21418 -8.11989,26.71405 -3.0535,3.09526 -18.14478,11.324 -23.38184,12.74931 -2.19078,0.59623 -4.60725,1.62516 -5.36995,2.28652 -0.76271,0.66135 -2.42678,1.45863 -3.69795,1.77172 -1.27117,0.31309 -16.03983,7.77166 -32.81925,16.57461 -16.77942,8.80294 -33.21215,16.95007 -36.51719,18.10473 -9.3013,3.24953 -16.80871,2.86769 -29.17955,-1.48414 -9.04145,-3.1806 -52.58875,-19.8857 -64.77886,-24.8497 l -4.74552,-1.93245 -3.72817,8.21005 c -5.67765,12.50315 -10.35518,23.54189 -10.35518,24.43773 0,0.44224 12.58457,2.00356 27.9657,3.46958 30.85671,2.94105 38.23127,4.16614 45.47188,7.55398 9.00894,4.21525 13.06649,9.6929 40.5947,54.80242 14.25782,23.3638 26.3227,44.15125 27.04121,46.59125 1.92513,6.53759 1.6426,15.37427 -0.69579,21.76179 -5.41453,14.79025 -22.79386,23.90327 -37.52802,19.67817 z M 289.41568,198.12861 c 22.554,-9.08571 34.31684,-33.30934 28.6666,-59.03415 -1.57589,-7.17479 -1.44858,-7.09235 -9.3158,-6.0323 -20.64841,2.78222 -46.39013,-4.52002 -62.54076,-17.74113 -2.11944,-1.735 -4.24319,-3.15455 -4.71945,-3.15455 -1.6729,0 -10.21706,10.12952 -12.60283,14.94126 -7.16764,14.45609 -6.80004,35.59076 0.85141,48.9516 3.44648,6.01817 10.63655,13.7383 16.18252,17.3755 12.29179,8.06129 30.29441,10.00479 43.47831,4.69377 z m -42.88744,-29.32234 c -1.32751,-1.0672 -2.8876,-3.55711 -3.46687,-5.53311 -2.9878,-10.19197 9.74588,-17.47178 17.00887,-9.72392 3.2399,3.45619 4.00773,7.61437 2.10163,11.3815 -2.84068,5.61422 -10.97437,7.62924 -15.64363,3.87553 z m 38.14812,-0.82147 c -2.25186,-2.30144 -2.70234,-3.53403 -2.70234,-7.39403 0,-3.5838 0.47078,-5.08291 2.08009,-6.62363 7.08331,-6.78144 17.33411,-2.8736 17.33411,6.60815 0,3.00086 -0.62553,4.38574 -3.14325,6.95889 -4.26388,4.35776 -9.57313,4.53408 -13.56861,0.45062 z"
     id="path436" />
</svg>
